<?xml version="1.0" encoding="iso-8859-1"?>
<!-- Generator: Adobe Illustrator 19.0.0, SVG Export Plug-In . SVG Version: 6.00 Build 0)  -->
<svg version="1.1" id="Layer_1" xmlns="http://www.w3.org/2000/svg" xmlns:xlink="http://www.w3.org/1999/xlink" x="0px" y="0px"
	 viewBox="0 0 512 512" style="enable-background:new 0 0 512 512;" xml:space="preserve">
<path style="fill:#FFE48D;" d="M10.449,390.673c6.508-18.754,21.871-34.115,40.625-40.622l23.78-8.25
	c18.754-6.507,34.116-21.869,40.625-40.623l8.247-23.765c6.508-18.754,21.871-34.115,40.625-40.622l23.628-8.198
	c18.754-6.507,34.116-21.869,40.625-40.622l8.195-23.615c6.508-18.754,21.871-34.115,40.625-40.622l23.78-8.251
	c18.754-6.507,34.116-21.869,40.625-40.622l8.247-23.765c6.508-18.754,21.871-34.115,40.625-40.622l110.852,110.855
	c-18.754,6.507-34.116,21.869-40.625,40.622l-8.247,23.765c-6.508,18.754-21.871,34.115-40.625,40.622l-23.78,8.251
	c-18.754,6.507-34.116,21.869-40.625,40.623l-8.195,23.615c-6.508,18.754-21.871,34.115-40.625,40.622l-23.628,8.198
	c-18.754,6.507-34.116,21.869-40.625,40.622l-8.247,23.765c-6.508,18.754-21.871,34.115-40.625,40.622l-23.78,8.25
	c-18.754,6.507-34.116,21.869-40.625,40.623L10.449,390.673z"/>
<path style="fill:#F7222B;" d="M47.401,427.625c6.508-18.754,21.871-34.115,40.625-40.622l23.78-8.25
	c18.754-6.507,34.116-21.869,40.625-40.623l8.247-23.765c6.508-18.754,21.871-34.115,40.625-40.622l23.628-8.198
	c18.754-6.507,34.116-21.869,40.625-40.622l8.195-23.615c6.508-18.754,21.871-34.115,40.625-40.622l23.78-8.251
	c18.754-6.507,34.116-21.869,40.625-40.622l8.247-23.765c6.508-18.754,21.871-34.115,40.625-40.622l38.303,38.303
	c-18.754,6.507-34.116,21.869-40.625,40.622l-8.247,23.765c-6.508,18.754-21.871,34.115-40.625,40.622l-23.78,8.251
	c-18.754,6.507-34.116,21.869-40.625,40.622l-8.195,23.615c-6.508,18.754-21.871,34.115-40.625,40.622l-23.628,8.198
	c-18.754,6.507-34.116,21.869-40.625,40.622l-8.247,23.765c-6.508,18.754-21.871,34.115-40.625,40.622l-23.78,8.251
	c-18.754,6.507-34.116,21.869-40.625,40.622L47.401,427.625z"/>
<path d="M224.018,305.572l-0.289,0.157c-5.078,2.741-6.974,9.079-4.233,14.158c1.889,3.5,5.488,5.488,9.205,5.488
	c1.676,0,3.375-0.404,4.954-1.256l0.289-0.157c5.078-2.741,6.974-9.079,4.233-14.158
	C235.435,304.727,229.097,302.832,224.018,305.572z"/>
<path d="M508.94,113.938L398.084,3.083c-2.83-2.831-7.031-3.795-10.814-2.483c-21.881,7.591-39.477,25.187-47.071,47.067
	l-8.247,23.765c-5.431,15.652-18.527,28.746-34.178,34.177l-23.78,8.251c-21.881,7.592-39.477,25.187-47.071,47.068l-8.195,23.615
	c-5.431,15.65-18.527,28.746-34.179,34.177l-23.627,8.198c-21.881,7.592-39.477,25.187-47.071,47.068l-8.247,23.765
	c-5.431,15.652-18.527,28.746-34.178,34.177l-23.781,8.25c-21.88,7.592-39.476,25.187-47.07,47.068
	c-1.312,3.783-0.348,7.983,2.483,10.815l110.856,110.855c1.981,1.981,4.649,3.06,7.388,3.06c0.778,0,1.562-0.087,2.338-0.264
	c3.507-0.806,6.354-3.358,7.533-6.758c5.431-15.65,18.527-28.746,34.178-34.177l23.78-8.25
	c21.881-7.592,39.477-25.187,47.071-47.068l8.247-23.765c5.431-15.65,18.527-28.746,34.178-34.177l23.628-8.198
	c21.88-7.592,39.477-25.187,47.071-47.068l8.195-23.615c5.431-15.65,18.527-28.746,34.178-34.177l23.78-8.251
	c21.881-7.592,39.477-25.187,47.071-47.068l8.247-23.765c5.431-15.65,18.527-28.746,34.178-34.177c3.4-1.18,5.954-4.026,6.758-7.533
	C512.54,120.157,511.485,116.482,508.94,113.938z M54.499,359.922l23.78-8.251c21.881-7.592,39.477-25.187,47.071-47.068
	l8.247-23.765c5.431-15.65,18.527-28.746,34.178-34.177l23.628-8.198c21.881-7.592,39.477-25.187,47.071-47.068l8.195-23.615
	c5.431-15.65,18.527-28.746,34.178-34.177l23.78-8.251c21.881-7.592,39.477-25.187,47.071-47.068l8.247-23.765
	c4.736-13.645,15.299-25.349,28.301-31.723l21.575,21.575c-15.064,9.157-26.829,23.426-32.667,40.249l-8.247,23.765
	c-5.431,15.65-18.527,28.746-34.178,34.177l-23.78,8.251c-21.881,7.592-39.477,25.187-47.071,47.068l-8.194,23.615
	c-5.431,15.65-18.527,28.746-34.179,34.177l-23.627,8.198c-21.88,7.592-39.477,25.187-47.071,47.068l-8.247,23.766
	c-5.431,15.65-18.527,28.746-34.178,34.177l-23.78,8.25c-16.823,5.837-31.091,17.601-40.249,32.666l-21.578-21.577
	C29.149,375.219,40.853,364.656,54.499,359.922z M451.055,158.524l-8.247,23.765c-5.431,15.65-18.527,28.746-34.178,34.177
	l-23.78,8.251c-21.881,7.592-39.477,25.187-47.071,47.068l-8.195,23.615c-5.431,15.65-18.527,28.746-34.178,34.177l-23.628,8.198
	c-21.881,7.592-39.477,25.187-47.071,47.068l-8.247,23.765c-5.431,15.65-18.527,28.746-34.178,34.177l-23.78,8.251
	c-16.82,5.836-31.109,17.586-40.268,32.647l-21.554-21.554c6.375-13.003,18.075-23.567,31.721-28.301l23.78-8.25
	c21.881-7.592,39.477-25.187,47.071-47.067l8.247-23.766c1.407-4.054,3.335-7.983,5.731-11.676
	c3.141-4.841,1.763-11.312-3.078-14.453c-4.842-3.141-11.312-1.763-14.453,3.078c-3.311,5.104-5.984,10.556-7.942,16.199
	l-8.247,23.765c-5.43,15.65-18.527,28.746-34.178,34.177l-23.78,8.251c-16.823,5.837-31.092,17.6-40.251,32.666l-21.573-21.572
	c6.374-13.003,18.075-23.567,31.721-28.302l23.78-8.25c21.881-7.592,39.477-25.187,47.071-47.068l8.247-23.766
	c5.431-15.65,18.527-28.746,34.178-34.177l23.628-8.198c21.881-7.592,39.477-25.187,47.071-47.068l8.194-23.615
	c5.431-15.65,18.527-28.746,34.178-34.177l23.78-8.251c21.881-7.592,39.477-25.187,47.071-47.068l8.247-23.765
	c4.735-13.647,15.301-25.347,28.304-31.72l21.572,21.572c-15.065,9.159-26.829,23.426-32.667,40.248l-8.247,23.766
	c-5.431,15.65-18.527,28.746-34.178,34.177l-23.78,8.251c-21.881,7.592-39.477,25.187-47.071,47.068l-8.195,23.615
	c-5.43,15.65-18.527,28.746-34.178,34.177c-5.451,1.891-8.337,7.845-6.446,13.297c1.498,4.318,5.544,7.027,9.871,7.027
	c1.136,0,2.291-0.187,3.426-0.581c21.881-7.592,39.477-25.187,47.07-47.068l8.195-23.615c5.431-15.65,18.527-28.746,34.178-34.177
	l23.78-8.251c21.881-7.592,39.477-25.187,47.071-47.068l8.247-23.766c4.736-13.646,15.3-25.346,28.303-31.72l21.553,21.554
	C468.642,127.414,456.893,141.703,451.055,158.524z"/>
<g>
</g>
<g>
</g>
<g>
</g>
<g>
</g>
<g>
</g>
<g>
</g>
<g>
</g>
<g>
</g>
<g>
</g>
<g>
</g>
<g>
</g>
<g>
</g>
<g>
</g>
<g>
</g>
<g>
</g>
</svg>
