<?xml version="1.0" encoding="iso-8859-1"?>
<!-- Generator: Adobe Illustrator 19.0.0, SVG Export Plug-In . SVG Version: 6.00 Build 0)  -->
<svg version="1.1" id="Capa_1" xmlns="http://www.w3.org/2000/svg" xmlns:xlink="http://www.w3.org/1999/xlink" x="0px" y="0px"
	 viewBox="0 0 512 512" style="enable-background:new 0 0 512 512;" xml:space="preserve">
<g>
	<g>
		<path d="M451.983,153.625l-0.017-0.01c-0.541-0.436-1.132-0.806-1.761-1.101c-0.36-0.258-0.738-0.49-1.132-0.691l-0.031-0.019
			c-0.296-0.062-0.595-0.107-0.896-0.135c-0.765-0.228-1.558-0.348-2.356-0.356c-1.066,0.224-2.127,0.475-3.181,0.752
			c-0.769,0.385-1.475,0.884-2.094,1.481c-0.183,0.165-0.417,0.234-0.59,0.417l-0.016,0.025c-0.319,0.422-0.6,0.871-0.839,1.343
			c-0.371,0.486-0.69,1.01-0.951,1.563l-0.011,0.019l-0.477,1.311c-9.193-7.353-18.903-14.036-29.055-19.996l2.724-7.482
			c0.062-0.294,0.107-0.591,0.135-0.89c0.145-0.556,0.231-1.125,0.257-1.698c0.022-0.536-0.009-1.073-0.093-1.603
			c-0.079-0.529-0.208-1.05-0.387-1.554c-0.183-0.513-0.417-1.006-0.698-1.472c-0.268-0.457-0.58-0.886-0.931-1.282
			c-0.65-0.586-1.3-1.173-1.95-1.759c-12.643-7.468-25.886-13.871-39.592-19.141l-0.096-0.016l-0.062-0.038
			c-0.588-0.16-1.193-0.252-1.802-0.276c-0.473-0.113-0.954-0.187-1.44-0.221c-0.676,0.07-1.342,0.222-1.981,0.453
			c-1.029,0.1-1.986,0.575-2.688,1.335c-0.419,0.251-0.815,0.538-1.183,0.859c-0.378,0.476-0.706,0.989-0.977,1.533
			c-0.307,0.395-0.576,0.817-0.804,1.261l-0.012,0.076l-0.046,0.074l-2.604,7.153c-10.824-3.61-21.852-6.579-33.026-8.891
			l2.43-6.671c0.117-0.472,0.19-0.954,0.219-1.44c0.145-0.484,0.244-0.979,0.298-1.481c0-0.078-0.037-0.145-0.04-0.223
			c-0.04-0.385-0.106-0.766-0.2-1.141c-0.084-0.652-0.244-1.293-0.475-1.908c-0.474-0.911-1.044-1.769-1.702-2.558
			c-0.761-0.746-1.64-1.362-2.602-1.821c-0.217-0.101-0.369-0.282-0.598-0.365c-0.193-0.071-0.39-0.033-0.584-0.09
			c-0.244-0.071-0.446-0.219-0.699-0.269c-14.655-2.867-29.5-4.658-44.417-5.358c-0.133-0.003-0.252,0.063-0.383,0.066
			c-0.766,0.025-1.524,0.156-2.254,0.389c-0.26,0.078-0.53,0.095-0.781,0.195c-0.826,0.336-1.593,0.8-2.273,1.377
			c-0.152,0.123-0.323,0.208-0.469,0.341c-0.519,0.519-0.967,1.105-1.332,1.741c-0.248,0.341-0.469,0.702-0.66,1.078
			c-0.067,0.154-0.197,0.258-0.255,0.417l-4.034,11.081c-12.329-0.153-24.657,0.359-36.93,1.534l1.781-4.894
			c0.033-0.092,0.012-0.186,0.042-0.278c0.148-0.568,0.236-1.15,0.265-1.736c0.095-0.54,0.139-1.087,0.129-1.635
			c-0.009-0.104,0.035-0.197,0.023-0.301c-0.102-0.409-0.234-0.809-0.397-1.198c-0.125-0.572-0.31-1.13-0.551-1.664
			c-0.595-0.9-1.266-1.748-2.003-2.535c-0.504-0.393-1.051-0.727-1.631-0.995c-0.311-0.221-0.637-0.42-0.976-0.595
			c-0.087-0.032-0.179-0.011-0.268-0.041c-0.552-0.141-1.117-0.227-1.686-0.256c-0.558-0.102-1.125-0.146-1.692-0.134
			c-0.102,0.009-0.194-0.036-0.296-0.023c-17.022,2.063-33.834,5.592-50.25,10.546c-0.199,0.06-0.335,0.209-0.527,0.282
			c-2.065,0.867-3.742,2.456-4.719,4.471c-0.081,0.182-0.235,0.307-0.304,0.497l-5.625,15.461
			c-14.984,5.132-29.502,11.532-43.399,19.13l0.022-0.145c0.539-2.169,0.303-4.458-0.666-6.472
			c-0.077-0.143-0.078-0.305-0.165-0.445c-0.222-0.272-0.462-0.528-0.718-0.768c-1.076-1.084-2.295-2.016-3.624-2.769
			c-0.158-0.058-0.323-0.025-0.482-0.073c-2.156-0.526-4.427-0.296-6.433,0.653c-0.156,0.083-0.331,0.084-0.484,0.179
			C36.067,162.629,0,221.417,0,285.096c0,3.088,0.092,6.088,0.275,8.921C5.392,385.975,89.042,430.675,256,430.675
			s250.608-44.7,255.725-137.233c0.009-0.13,0.004-0.264,0.013-0.394l0.004-0.019v-0.093c0.162-2.584,0.258-5.167,0.258-7.84
			C511.081,234.848,489.346,187.236,451.983,153.625z M431.419,175.319L431.419,175.319l-14.293,39.331
			c-3.234,8.866-13.044,13.432-21.91,10.198c-8.867-3.234-13.432-13.044-10.198-21.91l17.623-48.404
			C412.767,160.691,422.39,167.641,431.419,175.319z M348.509,129.575L348.509,129.575l-30.984,85.117
			c-3.246,8.839-13.042,13.373-21.881,10.127c-8.839-3.246-13.373-13.042-10.127-21.881l29.892-82.058
			C326.612,123.085,337.668,125.99,348.509,129.575z M217.023,117.546c12.365-1.607,24.817-2.444,37.285-2.508l-36.267,99.612
			c-3.234,8.866-13.044,13.432-21.91,10.198c-8.866-3.234-13.432-13.044-10.198-21.91L217.023,117.546z M86.35,202.934
			l15.983-43.923c14.145-9.356,29.203-17.251,44.943-23.565l-28.818,79.204c-3.223,8.871-13.027,13.45-21.898,10.227
			c-8.871-3.223-13.45-13.027-10.227-21.898C86.339,202.964,86.344,202.949,86.35,202.934z M86.168,153.54L70.3,197.137
			c-6.416,17.738,2.761,37.319,20.499,43.735c17.683,6.397,37.211-2.704,43.684-20.36L175.05,109.01
			c9.662-2.765,19.466-5.01,29.369-6.725L169.9,197.092c-6.451,17.726,2.689,37.325,20.414,43.776
			c17.701,6.442,37.275-2.663,43.752-20.351l44.281-121.63c8.613,0.589,17.229,1.598,25.827,2.971l-34.692,95.234
			c-6.469,17.696,2.633,37.286,20.329,43.754c17.696,6.469,37.286-2.633,43.754-20.329l33.912-93.167l0.037-0.067l0.01-0.062
			l2.36-6.486c7.803,3.308,15.431,7.016,22.852,11.109l-23.773,65.294c-6.409,17.74,2.777,37.317,20.517,43.726
			c17.677,6.386,37.191-2.71,43.667-20.355l16.332-44.948c22.574,23.729,37.638,53.597,43.3,85.855
			c-12.927,70.79-90.35,105.26-236.783,105.26c-146.777,0-224.242-34.619-236.896-105.746
			C27.129,217.961,51.081,179.607,86.168,153.54z M256,413.608c-146.994,0-224.747-34.993-237.096-106.86
			C52.292,358.403,130.421,383.742,256,383.742c125.59,0,203.72-25.343,237.104-77.005C480.792,378.591,403.04,413.608,256,413.608z
			"/>
	</g>
</g>
<g>
</g>
<g>
</g>
<g>
</g>
<g>
</g>
<g>
</g>
<g>
</g>
<g>
</g>
<g>
</g>
<g>
</g>
<g>
</g>
<g>
</g>
<g>
</g>
<g>
</g>
<g>
</g>
<g>
</g>
</svg>
