<svg height="348pt" viewBox="0 0 348 348" width="348pt" xmlns="http://www.w3.org/2000/svg"><path d="m320.398438 6h-16.371094c0 22.09375-17.90625 40-40 40-14.40625 0-26.996094-7.640625-34.039063-19.066406.003907.222656.015625.441406.015625.667968v292.792969c0 11.929688-3.226562 21.601563-7.203125 21.601563h11.230469c0-16.566406 13.429688-30 30-30 16.566406 0 30 13.433594 30 30h26.367188c11.929687 0 21.605468-9.671875 21.605468-21.601563v-292.792969c-.003906-11.929687-9.675781-21.601562-21.605468-21.601562zm-56.371094 211.160156c-16.566406 0-30-13.429687-30-30 0-16.566406 13.433594-30 30-30 16.570312 0 30 13.433594 30 30 0 16.570313-13.429688 30-30 30zm0 0" fill="#d3ba2a"/><path d="m118 320.398438v-18.492188c-20.894531-9.382812-35.453125-30.355469-35.453125-54.746094 0-24.386718 14.5625-45.359375 35.453125-54.746094v-55.78125c-4.15625 17.660157-19.972656 30.816407-38.898438 30.816407-22.089843 0-40-17.90625-40-40 0-22.089844 17.910157-40 40-40 18.925782 0 34.746094 13.160156 38.898438 30.816406v-90.664063c0-11.929687 3.222656-21.601562 7.199219-21.601562h-97.597657c-11.929687 0-21.601562 9.671875-21.601562 21.601562v292.792969c0 11.933594 9.671875 21.605469 21.601562 21.605469h97.597657c-3.976563 0-7.199219-9.671875-7.199219-21.601562zm0 0" fill="#ffeca7"/><path d="m229.988281 26.933594c-3.699219-6.003906-5.878906-13.035156-5.945312-20.589844-.402344-.210938-.820313-.34375-1.242188-.34375h-97.601562c-3.976563 0-7.199219 9.671875-7.199219 21.601562v164.8125c7.496094-3.367187 15.796875-5.253906 24.546875-5.253906 33.140625 0 60 26.863282 60 60 0 33.136719-26.859375 60-60 60-8.746094 0-17.050781-1.886718-24.546875-5.253906v18.488281c0 11.929688 3.222656 21.601563 7.199219 21.601563h97.601562c3.976563 0 7.199219-9.671875 7.199219-21.601563v-292.792969c0-.226562-.011719-.445312-.011719-.667968zm0 0" fill="#eee045"/><path d="m224.027344 6h-1.226563c.425781 0 .839844.132812 1.246094.34375-.003906-.117188-.019531-.226562-.019531-.34375zm0 0" fill="#eee045"/><path d="m224.042969 6.34375c.066406 7.554688 2.246093 14.585938 5.945312 20.589844-.105469-10.351563-2.632812-18.855469-5.945312-20.589844zm0 0" fill="#eee045"/><g fill="#1c2d6b"><path d="m79.101562 173.453125c-25.363281 0-46-20.636719-46-46 0-25.367187 20.636719-46 46-46 25.363282 0 46 20.632813 46 46 0 25.363281-20.636718 46-46 46zm0-80c-18.746093 0-34 15.25-34 34 0 18.746094 15.253907 34 34 34 18.75 0 34-15.253906 34-34 0-18.75-15.25-34-34-34zm0 0"/><path d="m142.546875 313.160156c-36.394531 0-66-29.605468-66-66 0-36.390625 29.605469-66 66-66 36.390625 0 66 29.609375 66 66 0 36.394532-29.605469 66-66 66zm0-120c-29.777344 0-54 24.226563-54 54 0 29.777344 24.222656 54 54 54 29.773437 0 54-24.222656 54-54 0-29.773437-24.226563-54-54-54zm0 0"/><path d="m264.027344 223.160156c-19.847656 0-36-16.148437-36-36 0-19.847656 16.152344-36 36-36 19.851562 0 36 16.152344 36 36 0 19.851563-16.148438 36-36 36zm0-60c-13.234375 0-24 10.769532-24 24 0 13.234375 10.765625 24 24 24s24-10.765625 24-24c0-13.230468-10.765625-24-24-24zm0 0"/><path d="m320.398438 348h-26.371094c-3.3125 0-6-2.6875-6-6 0-13.234375-10.765625-24-24-24s-24 10.765625-24 24c0 3.3125-2.683594 6-6 6h-206.425782c-15.21875 0-27.601562-12.382812-27.601562-27.601562v-292.796876c0-15.21875 12.382812-27.601562 27.601562-27.601562h196.425782c3.3125 0 6 2.6875 6 6 0 18.746094 15.25 34 34 34 18.746094 0 34-15.253906 34-34 0-3.3125 2.683594-6 6-6h16.367187c15.222657 0 27.605469 12.382812 27.605469 27.601562v292.796876c0 15.21875-12.382812 27.601562-27.601562 27.601562zm-20.871094-12h20.871094c8.605468 0 15.601562-6.996094 15.601562-15.601562v-292.796876c0-8.605468-7-15.601562-15.601562-15.601562h-10.761719c-2.945313 22.542969-22.277344 40-45.609375 40-23.332032 0-42.660156-17.457031-45.609375-40h-190.816407c-8.601562 0-15.601562 6.996094-15.601562 15.601562v292.796876c0 8.605468 7 15.601562 15.601562 15.601562h200.925782c2.863281-17.003906 17.691406-30 35.5-30 17.804687 0 32.632812 12.996094 35.5 30zm0 0"/></g></svg>