<svg height="512pt" viewBox="0 0 512 512.001" width="512pt" xmlns="http://www.w3.org/2000/svg"><path d="m158.0625 153.109375c-.996094 0-2-.035156-3.003906-.101563-24.761719-1.621093-43.585938-23.082031-41.964844-47.84375 1.621094-24.757812 23.085938-43.59375 47.847656-41.960937 11.992188.785156 22.964844 6.191406 30.890625 15.230469 7.925781 9.035156 11.855469 20.617187 11.070313 32.613281-.785156 11.992187-6.195313 22.964844-15.230469 30.890625-8.277344 7.261719-18.695313 11.171875-29.609375 11.171875zm-15.03125-45.984375c-.539062 8.253906 5.734375 15.40625 13.988281 15.949219 3.988281.261719 7.855469-1.050781 10.871094-3.691407 3.011719-2.640624 4.8125-6.296874 5.074219-10.296874.261718-3.996094-1.046875-7.859376-3.6875-10.871094-2.644532-3.011719-6.300782-4.816406-10.300782-5.078125-8.246093-.527344-15.40625 5.738281-15.945312 13.988281zm0 0"/><path d="m284.285156 315.78125c-1.640625 0-3.292968-.054688-4.953125-.164062-19.988281-1.308594-38.273437-10.324219-51.484375-25.386719-13.207031-15.058594-19.761718-34.363281-18.453125-54.351563 1.308594-19.992187 10.324219-38.277344 25.386719-51.484375 15.0625-13.210937 34.363281-19.769531 54.355469-18.457031 41.265625 2.703125 72.640625 38.472656 69.9375 79.742188-2.59375 39.605468-35.648438 70.101562-74.789063 70.101562zm-.113281-120.007812c-10.914063 0-21.332031 3.910156-29.609375 11.171874-9.035156 7.925782-14.445312 18.898438-15.230469 30.890626-.785156 11.996093 3.144531 23.578124 11.074219 32.613281 7.925781 9.035156 18.894531 14.445312 30.890625 15.230469.992187.066406 1.984375.097656 2.96875.097656 23.484375.003906 43.316406-18.292969 44.875-42.058594 1.621094-24.761719-17.207031-46.226562-41.964844-47.847656-1.003906-.0625-2.007812-.097656-3.003906-.097656zm0 0"/><path d="m467 512h-66.074219c-3.980469 0-7.796875-1.582031-10.609375-4.398438-2.816406-2.816406-4.394531-6.636718-4.390625-10.617187.007813-7.871094-6.144531-14.4375-14.011719-14.953125-8.265624-.539062-15.40625 5.734375-15.949218 13.988281-.019532.335938-.023438.671875-.023438 1.003907-.015625 8.273437-6.726562 14.976562-15 14.976562h-295.941406c-24.8125 0-45-20.1875-45-45v-106.007812c0-3.976563 1.582031-7.796876 4.398438-10.609376 2.8125-2.808593 6.625-4.390624 10.601562-4.390624h.027344c7.863281 0 14.425781-6.148438 14.941406-14.011719.261719-4-1.050781-7.859375-3.691406-10.871094-2.644532-3.011719-6.300782-4.8125-10.296875-5.078125-.332031-.019531-.660157-.023438-.992188-.023438-8.277343-.007812-14.988281-6.722656-14.988281-15v-124.277343c0-3.984375 1.582031-7.800781 4.398438-10.613281 2.8125-2.8125 6.628906-4.386719 10.601562-4.386719h.035156c7.683594 0 14.078125-5.773438 14.882813-13.433594.863281-8.226563-5.125-15.621094-13.351563-16.488281-.515625-.054688-1.050781-.082032-1.578125-.082032-8.28125-.007812-14.988281-6.71875-14.988281-15v-71.726562c0-24.8125 20.1875-45 45-45h422c24.8125 0 45 20.1875 45 45v34.769531c0 3.976563-1.582031 7.796875-4.398438 10.609375-2.8125 2.8125-6.625 4.390625-10.601562 4.390625-.023438 0-.046875 0-.070312 0-31.480469 0-57.742188 24.613281-59.800782 56.0625-2.160156 33.011719 22.9375 61.628907 55.953125 63.789063 1.140625.078125 2.390625.113281 3.933594.113281 8.277344.007813 14.984375 6.722656 14.984375 15v237.265625c0 24.8125-20.1875 45-45 45zm-53.648438-30h53.648438c8.273438 0 15-6.730469 15-15v-223.503906c-44.9375-7.5625-77.847656-48.195313-74.808594-94.625 2.757813-42.101563 34.449219-76.042969 74.808594-82.855469v-21.015625c0-8.269531-6.726562-15-15-15h-422c-8.269531 0-15 6.730469-15 15v59.296875c19.171875 6.773437 31.96875 26.046875 29.753906 47.132813-1.867187 17.769531-13.777344 32.148437-29.753906 37.761718v99.363282c7.199219 2.53125 13.664062 6.878906 18.832031 12.773437 7.925781 9.035156 11.859375 20.617187 11.070313 32.613281-1.199219 18.359375-13.410156 33.617188-29.902344 39.476563v93.582031c0 8.269531 6.730469 15 15 15h283.503906c6.550782-18.519531 24.832032-31.253906 45.371094-29.902344 18.363281 1.199219 33.617188 13.410156 39.476562 29.902344zm0 0"/><path d="m201.25 411.816406c7.84375 0 15.363281-6.898437 15-15-.363281-8.125-6.589844-15-15-15-7.847656 0-15.363281 6.898438-15 15 .363281 8.128906 6.589844 15 15 15zm0 0"/><path d="m433.882812 386.667969c7.84375 0 15.363282-6.898438 15-15-.367187-8.128907-6.59375-15-15-15-7.847656 0-15.363281 6.898437-15 15 .363282 8.128906 6.589844 15 15 15zm0 0"/></svg>