<?xml version="1.0" encoding="iso-8859-1"?>
<!-- Generator: Adobe Illustrator 21.0.0, SVG Export Plug-In . SVG Version: 6.00 Build 0)  -->
<svg xmlns="http://www.w3.org/2000/svg" xmlns:xlink="http://www.w3.org/1999/xlink" version="1.1" id="Capa_1" x="0px" y="0px" viewBox="0 0 512 512" style="enable-background:new 0 0 512 512;" xml:space="preserve" width="512" height="512">
<g>
	<path style="fill-rule:evenodd;clip-rule:evenodd;fill:#90D9EB;" d="M132.91,74.633h246.182v35.402   c0,54.27-35.123,100.334-83.875,116.709v58.512c48.752,16.375,83.875,62.439,83.875,116.709v35.402H132.91v-35.402   c0-54.27,35.123-100.334,83.876-116.709v-58.512c-48.753-16.375-83.876-62.439-83.876-116.709V74.633z"/>
	<rect x="116.026" y="10" style="fill-rule:evenodd;clip-rule:evenodd;fill:#FCC568;" width="279.948" height="64.633"/>
	<rect x="116.026" y="437.368" style="fill-rule:evenodd;clip-rule:evenodd;fill:#FCC568;" width="279.948" height="64.632"/>
	<path d="M230.381,196.269c-1.056,0-2.129-0.169-3.185-0.523c-33.947-11.401-57.976-41.825-61.216-77.508   c-0.499-5.5,3.555-10.364,9.055-10.863c5.508-0.498,10.364,3.555,10.863,9.055c2.523,27.788,21.232,51.48,47.665,60.358   c5.235,1.758,8.055,7.428,6.296,12.663C238.457,193.629,234.56,196.269,230.381,196.269z"/>
	<path d="M389.091,110.035V84.633h6.883c5.522,0,10-4.477,10-10V10c0-5.523-4.478-10-10-10H116.026c-5.522,0-10,4.477-10,10v64.633   c0,5.523,4.478,10,10,10h6.884v25.402c0,54.825,33.415,103.648,83.876,123.693v44.545c-50.461,20.044-83.876,68.867-83.876,123.692   v25.402h-6.884c-5.522,0-10,4.477-10,10V502c0,5.523,4.478,10,10,10h279.948c5.522,0,10-4.477,10-10v-64.633   c0-5.523-4.478-10-10-10h-6.883v-25.402c0-54.825-33.415-103.648-83.875-123.692v-44.545   C355.676,213.683,389.091,164.86,389.091,110.035z M126.026,20h259.948v44.633H126.026V20z M292.033,294.735   c46.091,15.481,77.059,58.574,77.059,107.229v25.402h-73.09c-5.522,0-10,4.477-10,10s4.478,10,10,10h89.973V492H126.026v-44.633   H216c5.522,0,10-4.477,10-10s-4.478-10-10-10H142.91v-25.402c0-48.656,30.968-91.748,77.06-107.229   c4.072-1.368,6.816-5.184,6.816-9.479v-58.512c0-4.296-2.744-8.112-6.816-9.479c-46.092-15.481-77.06-58.574-77.06-107.23V84.633   h226.182v25.402c0,48.656-30.968,91.749-77.059,107.23c-4.072,1.368-6.816,5.184-6.816,9.479v58.512   C285.216,289.552,287.96,293.368,292.033,294.735z"/>
	<path style="fill-rule:evenodd;clip-rule:evenodd;" d="M256,447.367c5.508,0,10.001-4.492,10.001-10c0-5.508-4.493-10-10.001-10   c-5.507,0-10,4.492-10,10C246,442.875,250.494,447.367,256,447.367z"/>
</g>















</svg>
