<?xml version="1.0" encoding="iso-8859-1"?>
<!-- Generator: Adobe Illustrator 21.0.0, SVG Export Plug-In . SVG Version: 6.00 Build 0)  -->
<svg xmlns="http://www.w3.org/2000/svg" xmlns:xlink="http://www.w3.org/1999/xlink" version="1.1" id="Capa_1" x="0px" y="0px" viewBox="0 0 512 512" style="enable-background:new 0 0 512 512;" xml:space="preserve" width="512" height="512">
<g>
	<path style="fill-rule:evenodd;clip-rule:evenodd;" d="M389.091,110.035V84.633h6.883c5.522,0,10-4.477,10-10V10   c0-5.523-4.478-10-10-10H116.026c-5.522,0-10,4.477-10,10v64.633c0,5.523,4.478,10,10,10h6.884v25.402   c0,54.825,33.415,103.648,83.876,123.693v44.545c-50.461,20.044-83.876,68.867-83.876,123.692v25.402h-6.884   c-5.522,0-10,4.477-10,10V502c0,5.523,4.478,10,10,10h279.948c5.522,0,10-4.477,10-10v-64.633c0-5.523-4.478-10-10-10h-6.883   v-25.402c0-54.825-33.415-103.648-83.875-123.692v-44.545C355.676,213.683,389.091,164.86,389.091,110.035z M126.026,20h259.948   v44.633H126.026V20z M292.033,294.735c46.091,15.481,77.059,58.574,77.059,107.229v25.402h-73.09c-5.522,0-10,4.477-10,10   s4.478,10,10,10h89.973V492H126.026v-44.633H216c5.522,0,10-4.477,10-10s-4.478-10-10-10H142.91v-25.402   c0-48.656,30.968-91.748,77.06-107.229c4.072-1.368,6.816-5.184,6.816-9.479v-58.512c0-4.296-2.744-8.112-6.816-9.479   c-46.092-15.481-77.06-58.574-77.06-107.23V84.633h226.182v25.402c0,48.656-30.968,91.749-77.059,107.23   c-4.072,1.368-6.816,5.184-6.816,9.479v58.512C285.216,289.552,287.96,293.368,292.033,294.735z"/>
	<path style="fill-rule:evenodd;clip-rule:evenodd;" d="M233.564,176.787c-26.433-8.878-45.142-32.57-47.665-60.358   c-0.499-5.5-5.355-9.553-10.863-9.055c-5.5,0.5-9.554,5.363-9.055,10.863c3.24,35.683,27.269,66.107,61.216,77.508   c1.056,0.354,2.129,0.523,3.185,0.523c4.179,0,8.075-2.639,9.479-6.819C241.619,184.214,238.799,178.545,233.564,176.787z"/>
	<path style="fill-rule:evenodd;clip-rule:evenodd;" d="M256,427.367c-5.507,0-10,4.492-10,10s4.493,10,10,10   c5.508,0,10.001-4.492,10.001-10S261.508,427.367,256,427.367z"/>
</g>















</svg>
