<?xml version="1.0" encoding="iso-8859-1"?>
<!-- Generator: Adobe Illustrator 19.0.0, SVG Export Plug-In . SVG Version: 6.00 Build 0)  -->
<svg version="1.1" id="Layer_1" xmlns="http://www.w3.org/2000/svg" xmlns:xlink="http://www.w3.org/1999/xlink" x="0px" y="0px"
	 viewBox="0 0 511.999 511.999" style="enable-background:new 0 0 511.999 511.999;" xml:space="preserve">
<g>
	<g>
		<path d="M373.064,172.855c13.15-13.15,20.392-30.633,20.392-49.229l0.001-36.328h8.37c16.901,0,30.652-13.751,30.652-30.652
			V30.652C432.479,13.751,418.729,0,401.828,0H110.171C93.27,0,79.519,13.751,79.519,30.652v25.994
			c0,16.901,13.751,30.652,30.652,30.652h8.373l-0.003,36.323c-0.001,18.599,7.241,36.085,20.394,49.236l80.828,80.822
			c1.281,1.281,1.281,3.362,0,4.643l-80.827,80.822c-13.154,13.151-20.396,30.637-20.395,49.236l0.003,36.323h-8.064
			c-17.072,0-30.961,13.889-30.961,30.961v25.375c0,17.072,13.889,30.961,30.961,30.961h291.037
			c17.072,0,30.961-13.889,30.961-30.961v-25.375c0-17.072-13.889-30.961-30.961-30.961h-8.06l-0.001-36.328
			c0-18.597-7.242-36.08-20.392-49.229L292.24,258.32c-1.279-1.279-1.279-3.362,0-4.642L373.064,172.855z M130.931,62.528
			c-0.001,0-0.001,0-0.001,0h-20.759c-3.244,0-5.883-2.639-5.883-5.883V30.652c0-3.244,2.639-5.883,5.883-5.883h291.656
			c3.243,0,5.883,2.639,5.883,5.883v25.994c0,3.244-2.639,5.883-5.883,5.883H130.931z M401.518,449.472
			c3.414,0,6.192,2.778,6.192,6.192v25.375c0,3.414-2.778,6.192-6.192,6.192H110.481c-3.414,0-6.192-2.778-6.192-6.192v-25.375
			c0-3.414,2.778-6.192,6.192-6.192h20.458c0.012,0,0.023,0.003,0.036,0.003c0.014,0,0.027-0.003,0.041-0.003H401.518z
			 M182.102,424.702l66.192-34.059c4.825-2.483,10.586-2.483,15.413,0l66.19,34.059H182.102z M274.726,275.836l80.824,80.824
			c8.472,8.471,13.138,19.735,13.138,31.714v28.432l-93.651-48.19c-11.92-6.134-26.157-6.134-38.078,0l-93.647,48.187l-0.003-28.428
			c-0.001-11.982,4.665-23.247,13.139-31.719l80.828-80.822c10.937-10.938,10.937-28.735,0-39.673l-49.656-49.652h91.274
			c6.839,0,12.385-5.545,12.385-12.385c0-6.84-5.546-12.385-12.385-12.385H162.849l-6.4-6.4
			c-8.474-8.472-13.139-19.737-13.138-31.719l0.002-36.325h225.376l-0.001,36.328c0,11.98-4.667,23.243-13.138,31.716
			l-80.824,80.824C263.789,247.102,263.789,264.898,274.726,275.836z"/>
	</g>
</g>
<g>
	<g>
		<path d="M255.999,300.152c-6.839,0-12.385,5.545-12.385,12.385v15.862c0,6.84,5.546,12.385,12.385,12.385
			c6.839,0,12.385-5.545,12.385-12.385v-15.862C268.384,305.697,262.838,300.152,255.999,300.152z"/>
	</g>
</g>
<g>
</g>
<g>
</g>
<g>
</g>
<g>
</g>
<g>
</g>
<g>
</g>
<g>
</g>
<g>
</g>
<g>
</g>
<g>
</g>
<g>
</g>
<g>
</g>
<g>
</g>
<g>
</g>
<g>
</g>
</svg>
