<?xml version="1.0" encoding="iso-8859-1"?>
<!-- Generator: Adobe Illustrator 19.0.0, SVG Export Plug-In . SVG Version: 6.00 Build 0)  -->
<svg version="1.1" id="Layer_1" xmlns="http://www.w3.org/2000/svg" xmlns:xlink="http://www.w3.org/1999/xlink" x="0px" y="0px"
	 viewBox="0 0 511.98 511.98" style="enable-background:new 0 0 511.98 511.98;" xml:space="preserve">
<polygon style="fill:#ED5564;" points="183.993,137.337 183.993,483.996 218.664,495.323 283.333,499.995 330.659,479.324 
	330.659,141.337 "/>
<rect x="200.33" y="97.999" style="fill:#E6E9ED;" width="105.33" height="37.67"/>
<polygon style="fill:#CCD1D9;" points="261.654,32.341 237.327,91.011 270.99,91.011 "/>
<path d="M330.69,128.056h-10.624V96.042c0-5.89-4.766-10.671-10.672-10.671h-26.093l-16.593-74.7c0-5.89-4.773-10.671-10.672-10.671
	c-5.891,0-10.671,4.781-10.671,10.671l-16.594,74.7h-26.085c-5.898,0-10.671,4.781-10.671,10.671v32.015H181.29
	c-5.891,0-10.671,4.781-10.671,10.656v352.142c0,0,15.929,21.125,85.418,21.125c69.497,0,85.324-21.125,85.324-21.125V138.712
	C341.361,132.837,336.58,128.056,330.69,128.056z M256.037,61.028l5.414,24.343h-10.82L256.037,61.028z M213.359,106.714h85.363
	v21.343h-85.363L213.359,106.714L213.359,106.714z M320.019,480.105c-8.172,4.125-26.875,10.53-63.982,10.53
	c-12.741,0-23.327-0.75-32.062-1.922V171.742h-0.047c0.031-0.344,0.047-0.672,0.047-1c0-5.906-4.772-10.687-10.671-10.687
	c-5.891,0-10.672,4.781-10.672,10.687c0,0.328,0.023,0.656,0.055,1h-0.055v312.52c-4.68-1.438-8.171-2.906-10.671-4.172V149.399
	h128.058V480.105z"/>
<g>
</g>
<g>
</g>
<g>
</g>
<g>
</g>
<g>
</g>
<g>
</g>
<g>
</g>
<g>
</g>
<g>
</g>
<g>
</g>
<g>
</g>
<g>
</g>
<g>
</g>
<g>
</g>
<g>
</g>
</svg>
