<?xml version="1.0" encoding="iso-8859-1"?>
<!-- Generator: Adobe Illustrator 19.0.0, SVG Export Plug-In . SVG Version: 6.00 Build 0)  -->
<svg version="1.1" id="Layer_1" xmlns="http://www.w3.org/2000/svg" xmlns:xlink="http://www.w3.org/1999/xlink" x="0px" y="0px"
	 viewBox="0 0 511.969 511.969" style="enable-background:new 0 0 511.969 511.969;" xml:space="preserve">
<g>
	<g>
		<path d="M330.686,128.046h-10.625V96.041c0-5.898-4.766-10.672-10.672-10.672h-26.092l-16.592-74.698
			C266.704,4.78,261.931,0,256.033,0c-5.89,0-10.671,4.78-10.671,10.671l-16.593,74.698h-26.084
			c-5.898,0-10.672,4.773-10.672,10.672v32.006h-10.726c-5.891,0-10.671,4.78-10.671,10.671v352.128
			c0,0,15.929,21.123,85.416,21.123c69.496,0,85.322-21.123,85.322-21.123V138.717C341.355,132.827,336.575,128.046,330.686,128.046
			z M256.033,61.035l5.414,24.334h-10.819L256.033,61.035z M213.356,106.704h85.362v21.343h-85.362V106.704z M256.033,490.626
			c-12.741,0-23.326-0.75-32.061-1.922V171.731h-0.047c0.031-0.328,0.047-0.664,0.047-1c0-5.891-4.772-10.671-10.671-10.671
			c-5.891,0-10.671,4.78-10.671,10.671c0,0.336,0.023,0.672,0.055,1h-0.055v312.521c-4.68-1.438-8.172-2.906-10.672-4.172V149.388
			h128.055v330.707h0C311.842,484.22,293.141,490.626,256.033,490.626z"/>
	</g>
</g>
<g>
</g>
<g>
</g>
<g>
</g>
<g>
</g>
<g>
</g>
<g>
</g>
<g>
</g>
<g>
</g>
<g>
</g>
<g>
</g>
<g>
</g>
<g>
</g>
<g>
</g>
<g>
</g>
<g>
</g>
</svg>
