<?xml version="1.0" encoding="iso-8859-1"?>
<!-- Generator: Adobe Illustrator 19.0.0, SVG Export Plug-In . SVG Version: 6.00 Build 0)  -->
<svg xmlns="http://www.w3.org/2000/svg" xmlns:xlink="http://www.w3.org/1999/xlink" version="1.1" id="Layer_1" x="0px" y="0px" viewBox="0 0 505.001 505.001" style="enable-background:new 0 0 505.001 505.001;" xml:space="preserve" width="512" height="512">
<path d="M436.177,127.375c-9.804-19.214-29.499-27.4-54.033-22.458c-2.073,0.417-4.181,0.563-6.289,0.465  c-0.869-2.053-1.295-4.284-1.223-6.596c0.658-21.819-7.76-38.05-24.346-46.938c-12.682-6.791-24.559-8.756-35.297-5.835  c-7.922,2.151-15.87-1.716-18.901-9.198C286.333,12.73,268.7,0,245.095,0c-23.598,0-41.228,12.73-50.979,36.809  c-3.039,7.487-10.988,11.356-18.904,9.204c-10.74-2.918-22.615-0.955-35.298,5.836c-9.213,4.935-15.934,12.145-19.974,21.431  c-1.652,3.798,0.087,8.217,3.885,9.87c3.8,1.652,8.217-0.087,9.87-3.885c2.698-6.202,7.049-10.844,13.3-14.192  c9.193-4.922,17.364-6.463,24.281-4.585c15.104,4.111,30.896-3.646,36.741-18.042C215.392,24.234,227.867,15,245.095,15  c17.235,0,29.713,9.234,37.089,27.446c5.83,14.393,21.625,22.15,36.738,18.042c6.919-1.88,15.09-0.338,24.281,4.583  c11.548,6.188,16.924,17.069,16.436,33.256c-0.024,0.776-0.014,1.547,0.018,2.314c-24.676-8.245-45.816-2.646-58.699,15.865  c-4.339,6.235-11.219,10.214-18.875,10.917c-23.301,2.141-36.666,15.002-36.666,35.288c0,6.406,2.519,15.964,6.657,29.248  c-4.291-1.211-8.802-1.793-13.354-1.702c-12.043-51.459-5.162-102.868-5.089-103.401c0.569-4.102-2.293-7.889-6.395-8.459  c-4.104-0.573-7.891,2.291-8.462,6.394c-0.318,2.281-7.316,54.291,5.187,108.239c-8.668,3.2-16.011,9.023-21.486,17.035  c-10.57-6.411-22.277-5.615-33.725,2.518c-12.463,8.855-27.989,10.235-40.519,3.598c-5.327-2.821-10.802-4.176-16.286-4.106  c-4.834-8.831-9.972-16.965-14.586-24.26c-17.499-27.667-22.994-39.238-11.162-51.071c4.389-4.389,9.281-6.639,14.96-6.88  c14.618-0.63,26.533-11.064,28.977-25.374c0.697-4.083-2.047-7.958-6.13-8.656c-4.084-0.696-7.958,2.048-8.656,6.13  c-1.243,7.28-7.344,12.59-14.833,12.913c-9.469,0.402-17.855,4.19-24.925,11.26c-21.433,21.433-6.606,44.876,9.091,69.695  c4.066,6.428,8.233,13.021,12.237,20.083c-0.997,0.503-1.991,1.037-2.978,1.638c-10.045,6.115-14.685,13.877-14.183,23.732  c0.404,7.918,4.167,16.249,8.525,25.895c6.722,14.88,15.088,33.399,15.088,58.427c0,26.718,8.651,72.043,33.031,111.854  c18.869,30.812,53.043,67.54,108.695,67.54c51.295,0,90.884-23.182,117.666-68.9c14.171-24.191,31.954-67.904,36.194-138.771  c0.247-4.135-2.904-7.687-7.039-7.935c-4.126-0.229-7.687,2.904-7.935,7.039c-1.008,16.85-3.134,36.907-7.36,57.631  c-0.344-50.897-13.003-100.768-23.167-140.77c-1.653-6.505-3.214-12.65-4.64-18.483c-0.983-4.023-5.043-6.486-9.066-5.505  c-4.024,0.984-6.488,5.043-5.505,9.066c1.442,5.899,3.012,12.076,4.673,18.616c14.727,57.965,34.872,137.269,13.157,207.505  c-0.742,1.348-1.48,2.699-2.256,4.023c-20.38,34.791-49.002,54.956-85.262,60.139c29.983-34.201,43.431-80.618,40.008-138.312  c-3.247-54.721-21.014-109.627-32.771-145.96c-6.106-18.87-11.379-35.166-11.379-41.674c0-7.828,2.388-18.453,23.038-20.35  c12.074-1.11,22.941-7.41,29.814-17.287c12.515-17.98,32.629-14.307,47.3-8.06c7.87,3.353,16.354,4.254,24.536,2.607  c22.689-4.569,33.032,5.4,37.71,14.57c4.773,9.356,2.019,14.261-7.41,28.355c-12.165,18.186-30.549,45.668-30.549,104.417  c0,4.142,3.358,7.5,7.5,7.5s7.5-3.358,7.5-7.5c0-54.194,16.193-78.401,28.017-96.076  C437.159,157.007,445.179,145.019,436.177,127.375z M204.507,481.459c-31.583-32.797-32.969-97.051-33.969-144.104  c-0.542-25.507-0.971-45.655-5.924-56.553c-1.714-3.771-6.162-5.438-9.931-3.724c-3.771,1.714-5.438,6.16-3.724,9.931  c3.678,8.091,4.118,28.771,4.583,50.665c0.796,37.439,1.828,85.214,17.667,122.304c-37.739-36.339-54.836-97.261-54.836-134.371  c0-28.259-9.49-49.265-16.418-64.602c-9.116-20.178-10.046-24.653-0.213-30.638c3.643-2.217,7.124-3.322,10.587-3.322  c2.944,0,5.876,0.799,8.884,2.392c17.568,9.305,39.114,7.532,56.228-4.626c8.241-5.854,14.808-5.303,21.958,1.847  c6.396,6.396,9.584,13.151,9.747,20.648c0.338,15.697,9.79,29.897,24.666,37.059c6.708,3.23,11.08,11.342,12.995,24.111  c2.592,17.28-5.399,39.307-13.859,62.626c-7.778,21.438-15.82,43.606-17.315,65.829c-1.327,19.727,2.79,36.782,12.542,51.684  C219.766,487.206,211.883,484.761,204.507,481.459z M245.546,486.866c-26.873-32.423-12.465-72.156,1.499-110.649  c9.127-25.16,17.749-48.924,14.592-69.967c-2.696-17.976-9.87-29.887-21.322-35.4c-9.761-4.7-15.96-13.846-16.176-23.868  c-0.209-9.693-3.697-18.671-10.357-26.761c4.806-7.865,11.915-12.96,20.415-14.502c8.743-1.583,18.067,0.835,24.267,6.188  C281.718,283.825,322.052,412.688,245.546,486.866z"/>















</svg>
