<?xml version="1.0" encoding="iso-8859-1"?>
<!-- Generator: Adobe Illustrator 21.0.0, SVG Export Plug-In . SVG Version: 6.00 Build 0)  -->
<svg xmlns="http://www.w3.org/2000/svg" xmlns:xlink="http://www.w3.org/1999/xlink" version="1.1" id="Capa_1" x="0px" y="0px" viewBox="0 0 512 512" style="enable-background:new 0 0 512 512;" xml:space="preserve" width="512" height="512">
<g>
	<g>
		<rect x="179.316" y="86.499" style="fill:#FEE94F;" width="153.369" height="66.285"/>
		<polygon style="fill:#FEE94F;" points="286.582,86 267.495,7.5 244.506,7.5 225.418,86   "/>
		<polygon style="fill:#FEE94F;" points="333.855,152.784 178.145,152.784 153.613,180.784 153.613,504.5 358.388,504.5     358.388,180.784   "/>
	</g>
	<g>
		<g>
			<g>
				<rect x="179.316" y="86.499" style="fill:#E9CA1C;" width="30" height="66.285"/>
			</g>
			<g>
				<polygon style="fill:#E9CA1C;" points="267.495,7.5 244.506,7.5 225.418,86 255.418,86 271,21.917     "/>
			</g>
			<g>
				<polygon style="fill:#E9CA1C;" points="208.145,152.784 178.145,152.784 153.613,180.784 153.613,504.5 183.613,504.5       183.613,180.784     "/>
			</g>
		</g>
	</g>
	<g>
		<polygon points="350.89,497 161.11,497 161.11,451.83 146.11,451.83 146.11,512 365.89,512 365.89,281.42 350.89,281.42   "/>
		<path d="M340.18,148.612V126.9h-15v18.38H302.5v-22.947h-15v22.947h-24v-22.947h-15v22.947h-26v-22.947h-15v22.947h-20.68V94    h138.36v12.9h15V79h-47.581l-19.21-79h-34.778l-19.209,79H171.82v69.613l-25.71,29.347v253.87h15V183.601l20.431-23.32H330.46    l20.43,23.32v77.819h15v-83.46L340.18,148.612z M250.401,15H261.6l15.44,63.5h-42.08L250.401,15z"/>
	</g>
	<g>
		<path style="fill:#FFFFFF;" d="M276.097,336.14h-15v-15h15V336.14z M251.097,336.14h-15v-15h15V336.14z"/>
	</g>
</g>















</svg>
