<?xml version="1.0" encoding="iso-8859-1"?>
<!-- Generator: Adobe Illustrator 21.0.0, SVG Export Plug-In . SVG Version: 6.00 Build 0)  -->
<svg xmlns="http://www.w3.org/2000/svg" xmlns:xlink="http://www.w3.org/1999/xlink" version="1.1" id="Capa_1" x="0px" y="0px" viewBox="0 0 512 512" style="enable-background:new 0 0 512 512;" xml:space="preserve" width="512" height="512">
<g>
	<g>
		<polygon points="350.89,497 161.11,497 161.11,451.83 146.11,451.83 146.11,512 365.89,512 365.89,281.42 350.89,281.42   "/>
		<path d="M340.18,148.612V126.9h-15v18.38H302.5v-22.947h-15v22.947h-24v-22.947h-15v22.947h-26v-22.947h-15v22.947h-20.68V94    h138.36v12.9h15V79h-47.581l-19.21-79h-34.778l-19.209,79H171.82v69.613l-25.71,29.347v253.87h15V183.601l20.431-23.32H330.46    l20.43,23.32v77.819h15v-83.46L340.18,148.612z M250.401,15H261.6l15.44,63.5h-42.08L250.401,15z"/>
	</g>
	<g>
		<path d="M276.097,336.14h-15v-15h15V336.14z M251.097,336.14h-15v-15h15V336.14z"/>
	</g>
</g>















</svg>
