<svg height="511pt" viewBox="-17 0 511 511.33747" width="511pt" xmlns="http://www.w3.org/2000/svg"><path d="m476.539062 212.464844c-3.910156-35.902344-15.945312-70.441406-35.191406-101-2.851562-4.5625-7.707031-7.496094-13.074218-7.894532-5.367188-.398437-10.601563 1.785157-14.097657 5.882813-13.921875-15.070313-29.746093-28.269531-47.066406-39.261719v-18.347656c.097656-9.230469-4.871094-17.769531-12.945313-22.238281-9.261718-5.128907-18.859374-9.621094-28.734374-13.441407-7.929688-3.125-16.894532-2.128906-23.945313 2.664063-6.757813 4.625-10.886719 12.214844-11.089844 20.402344-14.0625-3.074219-28.371093-4.875-42.753906-5.375v-8.125c-.007813-7.210938-3.019531-14.089844-8.3125-18.984375-5.15625-4.785156-12.074219-7.203125-19.085937-6.6757815-9.683594.7656255-19.304688 2.1249995-28.820313 4.0703125-11.957031 2.453125-20.554687 12.964844-20.582031 25.175781v13.652344c-16.050782 4.761719-31.546875 11.222656-46.222656 19.277344-2.699219-4.617188-6.765626-8.285156-11.640626-10.488282-8.753906-4.054687-19.058593-2.6875-26.453124 3.507813-10.503907 8.75-20.230469 18.390625-29.074219 28.816406-3.953125 4.648438-6.105469 10.558594-6.074219 16.65625v23.9375c-2.886719 3.652344-5.734375 7.320313-8.390625 11.09375-22.832031 32.621094-37.042969 70.488281-41.308594 110.078125-6.078125 53.828125 6.332031 108.125 35.191407 153.96875 3.0625 4.988282 8.5 8.03125 14.355468 8.027344 1.617188.003906 3.230469-.222656 4.785156-.671875 3.132813-.929687 5.925782-2.746094 8.046876-5.230469 13.9375 15.058594 29.75 28.265625 47.054687 39.292969v18.246094c-.109375 9.253906 4.859375 17.820312 12.941406 22.324219 9.277344 5.136718 18.894531 9.632812 28.785157 13.457031 7.957031 3.074219 16.921874 2.03125 23.960937-2.792969 6.707031-4.609375 10.804687-12.152344 11.015625-20.289062 14.0625 3.070312 28.375 4.867187 42.761719 5.367187v8.132813c.007812 7.175781 3.003906 14.027343 8.269531 18.90625 4.667969 4.324218 10.789062 6.734374 17.152344 6.75.628906 0 1.261718 0 1.902344-.074219 9.703124-.730469 19.355468-2.066407 28.894531-3.996094 11.960937-2.449219 20.554687-12.960937 20.582031-25.171875v-13.652344c16.058594-4.773437 31.566406-11.242187 46.257812-19.292968 2.726563 4.65625 6.839844 8.347656 11.769532 10.554687 3.265625 1.46875 6.804687 2.230469 10.382812 2.234375 5.8125.003906 11.433594-2.050781 15.871094-5.800781 10.511719-8.742188 20.242188-18.382813 29.082031-28.808594 3.960938-4.644531 6.128907-10.554687 6.101563-16.660156v-23.984375c38.878906-49.253906 56.738281-111.867188 49.699218-174.21875zm-43.332031-81.203125c.851563 1.484375 1.5625 3.023437 2.347657 4.53125 1.140624 2.167969 2.3125 4.320312 3.414062 6.527343.75 1.5625 1.414062 3.167969 2.132812 4.746094.996094 2.203125 2.039063 4.394532 2.960938 6.628906.648438 1.5625 1.203125 3.152344 1.808594 4.71875.894531 2.3125 1.824218 4.609376 2.644531 6.949219.519531 1.5.957031 3.027344 1.449219 4.539063.804687 2.449218 1.632812 4.890625 2.339844 7.371094.417968 1.453124.75 2.929687 1.144531 4.386718.671875 2.558594 1.382812 5.121094 1.96875 7.679688.324219 1.433594.574219 2.894531.855469 4.335937.535156 2.628907 1.101562 5.257813 1.550781 7.910157.25 1.460937.410156 2.933593.625 4.402343.367187 2.484375.75 4.976563 1.023437 7.476563-3.722656 32.976562-14.878906 64.675781-32.632812 92.714844v-185.644532c2.238281 3.523438 4.359375 7.097656 6.367187 10.726563zm-23.433593-1.109375v229.316406c.019531 2.035156-.683594 4.011719-1.980469 5.582031-8.21875 9.710938-17.261719 18.691407-27.03125 26.84375-2.335938 1.957031-5.59375 2.375-8.347657 1.070313-3.0625-1.300782-5.121093-4.230469-5.304687-7.554688v-294.894531c15.902344 11.28125 30.246094 24.605469 42.664063 39.636719zm-102.398438-90.171875c0-4.710938 3.820312-8.53125 8.53125-8.53125 1.144531.003906 2.273438.222656 3.339844.640625 9.1875 3.546875 18.125 7.726562 26.742187 12.5 2.5625 1.507812 4.109375 4.28125 4.050781 7.253906v328.703125c-13.503906 7.835937-27.808593 14.21875-42.664062 19.03125zm-17.066406 16.625v374.289062c0 4.070313-2.84375 7.589844-6.828125 8.4375-8.855469 1.792969-17.8125 3.03125-26.820313 3.703125-2.277344.160156-4.519531-.632812-6.195312-2.183594-1.796875-1.632812-2.824219-3.945312-2.824219-6.375v-383.667968c14.378906.542968 28.667969 2.484375 42.667969 5.796875zm-102.402344-27.289063c.011719-4.109375 2.910156-7.644531 6.9375-8.457031 8.832031-1.804687 17.765625-3.066406 26.753906-3.773437 2.265625-.167969 4.5.625 6.152344 2.183593 1.796875 1.671875 2.816406 4.011719 2.824219 6.460938v383.667969c-14.375-.546876-28.664063-2.484376-42.667969-5.792969zm-17.066406 380.925782v9.984374c.015625 2.796876-1.371094 5.414063-3.695313 6.972657-2.398437 1.65625-5.46875 2.007812-8.183593.9375-9.183594-3.554688-18.113282-7.734375-26.726563-12.519531-2.59375-1.515626-4.152344-4.332032-4.058594-7.335938v-328.621094c13.507813-7.824218 27.808594-14.191406 42.664063-18.984375zm-102.398438-309.503907c-.039062-2.035156.664063-4.015625 1.980469-5.570312 8.222656-9.691407 17.265625-18.652344 27.03125-26.789063 2.367187-2 5.691406-2.421875 8.484375-1.074218 3.039062 1.339843 5.046875 4.292968 5.171875 7.613281v294.742187c-15.875-11.273437-30.21875-24.5625-42.667969-39.527344zm-48.769531 139.503907c.257813-1.785157.453125-3.585938.753906-5.351563.417969-2.472656.945313-4.914063 1.441407-7.363281.332031-1.628906.613281-3.269532.980468-4.890625.589844-2.609375 1.296875-5.179688 1.980469-7.753907.382813-1.433593.707031-2.886718 1.117187-4.269531.800782-2.789062 1.707032-5.546875 2.636719-8.292969.382813-1.179687.726563-2.371093 1.132813-3.550781 1.078125-3.078125 2.28125-6.117187 3.5-9.15625.316406-.800781.597656-1.628906.929687-2.429687 1.535157-3.695313 3.175781-7.34375 4.917969-10.949219.058594-.121094.109375-.25.160156-.375 3.632813-7.511719 7.6875-14.808594 12.152344-21.855469v185.53125c-17.714844-28.015625-28.867188-59.675781-32.625-92.613281.257812-2.234375.597656-4.453125.921875-6.679687zm3.765625 83.992187c3.984375 8.390625 8.46875 16.53125 13.429688 24.382813 3.0625 4.988281 8.5 8.027343 14.355468 8.027343h.152344v34.132813c-12.917969-20.488282-22.355469-42.972656-27.9375-66.542969zm45.003906 57.019531v-25.785156c12.859375 13.113281 27.171875 24.714844 42.667969 34.574219v30.867187c-15.898437-11.292968-30.242187-24.625-42.667969-39.65625zm102.398438 90.171875c.015625 2.796875-1.371094 5.414063-3.695313 6.972657-2.398437 1.65625-5.46875 2.007812-8.183593.9375-9.183594-3.550782-18.113282-7.734376-26.726563-12.515626-2.59375-1.515624-4.152344-4.332031-4.058594-7.339843v-26.777344c7.988281 4.269531 16.222657 8.0625 24.660157 11.359375 5.777343 2.257812 12.183593 2.320312 18.003906.175781zm17.066406-16.621093v-33.808594c14.035156 3.0625 28.3125 4.851562 42.667969 5.347656v34.253906c-14.375-.542968-28.664063-2.484375-42.667969-5.792968zm102.402344 27.304687c0 4.074219-2.84375 7.589844-6.828125 8.441406-8.855469 1.792969-17.8125 3.03125-26.820313 3.703125-2.277344.15625-4.519531-.632812-6.195312-2.183594-1.800782-1.636718-2.828125-3.957031-2.824219-6.390624v-27.050782c2.679687.972656 5.503906 1.484375 8.355469 1.507813.628906 0 1.261718 0 1.902344-.074219 9.703124-.730469 19.355468-2.066406 28.894531-3.996094 1.195312-.257812 2.367187-.597656 3.515625-1.023437zm17.066406-51.199219v-13.652344c14.753906-4.355468 29.042969-10.144531 42.664062-17.289062v31.777344c-13.503906 7.839844-27.808593 14.21875-42.664062 19.03125zm100.417969-14.640625c-8.21875 9.703125-17.265625 18.679688-27.03125 26.828125-2.332031 1.960938-5.597657 2.375-8.347657 1.066406-3.0625-1.300781-5.121093-4.230468-5.304687-7.554687v-27.5625c2.777344 1.078125 5.722656 1.65625 8.703125 1.707031 5.808594.003906 11.433594-2.050781 15.871094-5.800781 6.324218-5.324219 12.363281-10.984375 18.089844-16.949219v22.664063c.019531 2.039062-.683594 4.015625-1.980469 5.582031zm19.046875-80.753906c10.9375-13.867187 20.296875-28.910156 27.898437-44.851563-5.605469 23.589844-15.027343 46.101563-27.898437 66.648438zm0 0"/></svg>