<?xml version="1.0" encoding="iso-8859-1"?>
<!-- Generator: Adobe Illustrator 19.0.0, SVG Export Plug-In . SVG Version: 6.00 Build 0)  -->
<svg version="1.1" id="Capa_1" xmlns="http://www.w3.org/2000/svg" xmlns:xlink="http://www.w3.org/1999/xlink" x="0px" y="0px"
	 viewBox="0 0 398.255 398.255" style="enable-background:new 0 0 398.255 398.255;" xml:space="preserve">
<g>
	<g>
		<path d="M376.349,86.335l-92.72-81.68c-8.549-7.042-21.154-5.977-28.4,2.4l-91.52,121.6c-7.325,8.31-6.538,20.981,1.76,28.32
			l31.28,27.6l-56,63.44c-13.204-7.029-29.516-3.973-39.28,7.36l-78.24,88.72c-11.885,13.554-10.533,34.176,3.021,46.061
			c5.938,5.207,13.562,8.084,21.459,8.099c9.366,0.003,18.282-4.018,24.48-11.04l78.16-88.8c9.829-11.234,10.784-27.705,2.32-40
			l56-63.44l31.52,28.08c3.661,3.248,8.386,5.041,13.28,5.04c5.553,0.053,10.87-2.242,14.64-6.32l110-107.12
			C385.434,106.346,384.646,93.674,376.349,86.335z M138.589,287.855L138.589,287.855l-78.16,88.8
			c-3.165,3.569-7.71,5.609-12.48,5.6c-9.19-0.022-16.622-7.491-16.599-16.681c0.01-4.018,1.473-7.896,4.119-10.919l78.16-88.8
			c6.23-6.756,16.757-7.183,23.513-0.954C143.685,270.934,144.322,281.048,138.589,287.855z M366.589,103.615l-0.08,0.24
			l-110,106.48c-1.556,1.568-4.088,1.579-5.657,0.023c-0.008-0.008-0.016-0.015-0.023-0.023l-74.64-65.76
			c-1.723-1.586-1.835-4.268-0.249-5.991c0.079-0.086,0.163-0.169,0.249-0.249l91.12-121.28c1.583-1.534,4.097-1.534,5.68,0
			l92.72,81.28C367.277,99.63,367.652,101.882,366.589,103.615z"/>
	</g>
</g>
<g>
	<g>
		<path d="M268.989,56.335c-3.535-2.651-8.549-1.935-11.2,1.6l-47.04,62.8c-2.654,3.532-1.942,8.547,1.59,11.201
			c3.532,2.654,8.547,1.942,11.201-1.59c0.003-0.004,0.006-0.008,0.008-0.011l47.04-62.8C273.24,64,272.523,58.986,268.989,56.335z"
			/>
	</g>
</g>
<g>
	<g>
		<path d="M326.949,107.335c-3.071-3.181-8.139-3.271-11.32-0.2l-56,54.56c-3.181,3.071-3.271,8.139-0.2,11.32
			c3.071,3.181,8.139,3.271,11.32,0.2l56-54.56C329.93,115.584,330.019,110.516,326.949,107.335z"/>
	</g>
</g>
<g>
	<g>
		<path d="M298.029,81.776C298.029,81.775,298.029,81.775,298.029,81.776c-3.316-2.912-8.363-2.59-11.281,0.719l-51.68,58.72
			c-2.916,3.358-2.558,8.444,0.8,11.36c3.358,2.916,8.444,2.558,11.36-0.8l51.68-58.72C301.78,89.697,301.387,84.647,298.029,81.776
			z"/>
	</g>
</g>
<g>
</g>
<g>
</g>
<g>
</g>
<g>
</g>
<g>
</g>
<g>
</g>
<g>
</g>
<g>
</g>
<g>
</g>
<g>
</g>
<g>
</g>
<g>
</g>
<g>
</g>
<g>
</g>
<g>
</g>
</svg>
