<?xml version="1.0" encoding="iso-8859-1"?>
<!-- Generator: Adobe Illustrator 19.0.0, SVG Export Plug-In . SVG Version: 6.00 Build 0)  -->
<svg version="1.1" id="Capa_1" xmlns="http://www.w3.org/2000/svg" xmlns:xlink="http://www.w3.org/1999/xlink" x="0px" y="0px"
	 viewBox="0 0 398.198 398.198" style="enable-background:new 0 0 398.198 398.198;" xml:space="preserve">
<path style="fill:#546172;" d="M47.473,390.198c-13.6,0-24.8-11.2-24.8-24.8c0-5.6,2.4-12,6.4-16l78.4-88.8c8.8-10.4,24-12,34.4-3.2
	c10.4,8.8,12,24,3.2,34.4l-0.8,0.8l-78.4,88.8C61.073,386.998,54.673,390.198,47.473,390.198z"/>
<path style="fill:#6F7D8C;" d="M34.673,362.998l78.4-88.8c6.4-7.2,16.8-8,23.2-1.6c2.4,2.4,4,4.8,4.8,8c2.4-8.8-3.2-17.6-12-20
	c-6.4-1.6-12.8,0-16.8,4.8l-78.4,88.8c-3.2,3.2-4.8,8-4,12c0,0.8,0,2.4,0.8,3.2C31.473,367.798,33.073,365.398,34.673,362.998z"/>
<path style="fill:#3F4C5B;" d="M137.873,271.798l-78.4,88.8c-3.2,3.2-8,5.6-12.8,5.6l0,0c-6.4,0-12-3.2-14.4-8.8
	c-4.8,8-1.6,18.4,6.4,22.4c2.4,1.6,4.8,2.4,8,2.4l0,0c4.8,0,9.6-2.4,12.8-5.6l78.4-88.8c4.8-5.6,5.6-12.8,2.4-19.2
	C139.473,270.198,138.673,270.998,137.873,271.798z"/>
<path style="fill:#FFFFFF;" d="M253.073,219.798c-3.2,0-5.6-0.8-8-3.2l-74.4-65.6c-4.8-4.8-5.6-12-0.8-16.8l0,0l90.4-122.4
	c2.4-3.2,5.6-4.8,9.6-4.8c3.2,0,5.6,0.8,8,3.2l92.8,81.6c4.8,4,5.6,11.2,1.6,16.8l-111.2,107.2
	C259.473,218.198,256.273,219.798,253.073,219.798z"/>
<path style="fill:#DDE6ED;" d="M355.473,89.398l-27.2,26.4c0,0.8-0.8,2.4-1.6,3.2l-56,54.4c-0.8,0.8-1.6,1.6-3.2,1.6l-11.2,10.4
	c-1.6,1.6-4,1.6-5.6,0l0,0l-66.4-58.4l-8,11.2c-1.6,1.6-1.6,4,0,5.6l0,0l74.4,65.6c1.6,1.6,4,1.6,5.6,0l0,0l109.6-106.4
	c0.8-1.6,0.8-4-0.8-5.6L355.473,89.398z"/>
<g>
	<path style="fill:#39454C;" d="M282.673,4.598c-8-7.2-20.8-5.6-28,2.4l-91.2,121.6c-7.2,8-6.4,20.8,1.6,28l31.2,28l-56,63.2
		c-13.6-7.2-29.6-4-39.2,7.2l-78.4,88.8c-12,13.6-10.4,34.4,3.2,46.4c5.6,5.6,13.6,8,21.6,8l0,0c9.6,0,18.4-4,24.8-11.2l78.4-88.8
		c9.6-11.2,10.4-28,2.4-40l56-63.2l31.2,28c4,3.2,8,4.8,13.6,4.8c5.6,0,11.2-2.4,14.4-6.4l110.4-107.2c7.2-8,6.4-20.8-1.6-28
		L282.673,4.598z M137.873,287.798l-78.4,88.8c-3.2,3.2-8,5.6-12.8,5.6l0,0c-8.8,0-16.8-7.2-16.8-16.8c0-4,1.6-8,4-11.2l78.4-88.8
		c6.4-6.4,16.8-7.2,23.2-0.8C143.473,270.998,143.473,280.598,137.873,287.798z M365.873,103.798l-109.6,106.4c-1.6,1.6-4,1.6-5.6,0
		l0,0l-74.4-65.6c-1.6-1.6-1.6-4,0-5.6l0,0l90.4-121.6c1.6-1.6,4-1.6,5.6,0l92.8,81.6
		C366.673,99.798,367.473,102.198,365.873,103.798L365.873,103.798z"/>
	<path style="fill:#39454C;" d="M268.273,56.598c-3.2-2.4-8.8-1.6-11.2,1.6l0,0l-47.2,62.4c-2.4,3.2-1.6,8.8,1.6,11.2
		s8.8,1.6,11.2-1.6l0,0l47.2-63.2C273.073,63.798,272.273,58.998,268.273,56.598z"/>
	<path style="fill:#39454C;" d="M314.673,106.998l-56,54.4c-3.2,3.2-3.2,8,0,11.2c3.2,3.2,8,3.2,11.2,0l56-54.4
		c3.2-3.2,3.2-8,0-11.2C323.473,103.798,317.873,103.798,314.673,106.998L314.673,106.998z"/>
	<path style="fill:#39454C;" d="M297.073,81.398c-3.2-3.2-8-2.4-11.2,0.8l-52,58.4c-3.2,3.2-2.4,8.8,0.8,11.2
		c3.2,3.2,8.8,2.4,11.2-0.8l0,0l52-58.4C301.073,89.398,301.073,84.598,297.073,81.398
		C297.873,81.398,297.873,81.398,297.073,81.398z"/>
</g>
<g>
</g>
<g>
</g>
<g>
</g>
<g>
</g>
<g>
</g>
<g>
</g>
<g>
</g>
<g>
</g>
<g>
</g>
<g>
</g>
<g>
</g>
<g>
</g>
<g>
</g>
<g>
</g>
<g>
</g>
</svg>
